<?xml version="1.0" encoding="UTF-8" standalone="no"?>
<!-- Generator: Adobe Illustrator 16.0.4, SVG Export Plug-In . SVG Version: 6.00 Build 0)  -->

<svg
   xmlns:dc="http://purl.org/dc/elements/1.1/"
   xmlns:cc="http://creativecommons.org/ns#"
   xmlns:rdf="http://www.w3.org/1999/02/22-rdf-syntax-ns#"
   xmlns:svg="http://www.w3.org/2000/svg"
   xmlns="http://www.w3.org/2000/svg"
   xmlns:xlink="http://www.w3.org/1999/xlink"
   xmlns:sodipodi="http://sodipodi.sourceforge.net/DTD/sodipodi-0.dtd"
   xmlns:inkscape="http://www.inkscape.org/namespaces/inkscape"
   version="1.1"
   id="Capa_1"
   x="0px"
   y="0px"
   width="512px"
   height="512px"
   viewBox="0 0 512 512"
   enable-background="new 0 0 512 512"
   xml:space="preserve"
   inkscape:version="0.48.5 r10040"
   sodipodi:docname="app_icon.svg"
   inkscape:export-filename="/home/sbar/git/qdevicemonitor/qdevicemonitor/icons/app_icon.png"
   inkscape:export-xdpi="90"
   inkscape:export-ydpi="90"><metadata
     id="metadata3065"><rdf:RDF><cc:Work
         rdf:about=""><dc:format>image/svg+xml</dc:format><dc:type
           rdf:resource="http://purl.org/dc/dcmitype/StillImage" /><dc:title></dc:title></cc:Work></rdf:RDF></metadata><defs
     id="defs3063"><linearGradient
       id="linearGradient3053"><stop
         style="stop-color:#bf9200;stop-opacity:1;"
         offset="0"
         id="stop3055" /><stop
         style="stop-color:#800000;stop-opacity:0;"
         offset="1"
         id="stop3057" /></linearGradient><radialGradient
       inkscape:collect="always"
       xlink:href="#linearGradient3053"
       id="radialGradient3059"
       cx="236.08162"
       cy="233.38951"
       fx="236.08162"
       fy="233.38951"
       r="246.69891"
       gradientUnits="userSpaceOnUse"
       gradientTransform="matrix(-0.46063643,0.66850396,-0.63493045,-0.43750237,488.89498,294.81138)" /></defs><sodipodi:namedview
     pagecolor="#ffffff"
     bordercolor="#666666"
     borderopacity="1"
     objecttolerance="10"
     gridtolerance="10"
     guidetolerance="10"
     inkscape:pageopacity="0"
     inkscape:pageshadow="2"
     inkscape:window-width="1274"
     inkscape:window-height="690"
     id="namedview3061"
     showgrid="false"
     inkscape:zoom="0.7803034"
     inkscape:cx="481.91925"
     inkscape:cy="261.99808"
     inkscape:window-x="1280"
     inkscape:window-y="25"
     inkscape:window-maximized="0"
     inkscape:current-layer="Capa_1" /><path
     sodipodi:type="arc"
     style="fill:url(#radialGradient3059);fill-opacity:1"
     id="path3020"
     sodipodi:cx="226.19406"
     sodipodi:cy="344.75735"
     sodipodi:rx="246.69891"
     sodipodi:ry="246.69891"
     d="m 472.89297,344.75735 a 246.69891,246.69891 0 1 1 -493.397822,0 246.69891,246.69891 0 1 1 493.397822,0 z"
     transform="translate(26.407762,-85.262111)" /><g
     inkscape:groupmode="layer"
     id="layer1"
     inkscape:label="background"
     style="display:inline;opacity:1" /><g
     inkscape:groupmode="layer"
     id="layer2"
     inkscape:label="foreground"
     style="display:inline" /><g
     id="g3022"
     transform="translate(4.8367516,-8.2167334)"><g
       style="fill:#800000"
       transform="matrix(1.1548497,0,0,1.1548497,-59.439213,-26.079383)"
       id="g3114"><path
         style="fill:#800000"
         inkscape:connector-curvature="0"
         d="M 381.02496,143.51905 H 374.355 v -32.1896 c 0,-0.20155 -0.0327,-0.40309 -0.0572,-0.60735 -0.0109,-1.27735 -0.41942,-2.5329 -1.29368,-3.527 L 319.44285,46.013348 c -0.0164,-0.01634 -0.0327,-0.02179 -0.0436,-0.03813 -0.31866,-0.356784 -0.69178,-0.653651 -1.08397,-0.909664 -0.11712,-0.07898 -0.23423,-0.144348 -0.35679,-0.212437 -0.34044,-0.185201 -0.70267,-0.340443 -1.0758,-0.452109 -0.10077,-0.02723 -0.19065,-0.06809 -0.29142,-0.09532 -0.40308,-0.09532 -0.82523,-0.155242 -1.25011,-0.155242 H 183.70672 c -6.01087,0 -10.89419,4.888766 -10.89419,10.894187 v 88.471687 h -6.66996 c -8.59824,0 -15.57052,6.96956 -15.57052,15.57052 v 80.97104 c 0,8.59551 6.97228,15.57052 15.57052,15.57052 h 6.66996 v 55.42962 c 0,6.00542 4.88332,10.89419 10.89419,10.89419 h 179.75409 c 6.00542,0 10.89419,-4.88877 10.89419,-10.89419 v -55.4269 h 6.66996 c 8.59824,0 15.57052,-6.975 15.57052,-15.57052 v -80.97104 c 0,-8.60368 -6.97228,-15.57051 -15.57052,-15.57051 z M 183.70672,55.044629 h 126.18737 v 55.737381 c 0,3.00952 2.4403,5.4471 5.44709,5.4471 h 48.11963 v 27.28994 H 183.70672 V 55.044629 z M 295.70986,197.88648 c 0,24.20416 -14.67719,38.88408 -36.25586,38.88408 -21.90548,0 -34.72249,-16.53738 -34.72249,-37.57133 0,-22.12881 14.12976,-38.66619 35.9263,-38.66619 22.67625,0 35.05205,16.97859 35.05205,37.35344 z m -119.40302,37.67755 v -73.82446 h 16.75799 v 59.80636 h 29.35711 v 14.01538 h -46.1151 z M 363.46081,308.1057 H 183.70672 v -52.47458 h 179.75409 v 52.47458 z m 4.88604,-75.93521 c -5.15023,1.75124 -14.8978,4.15886 -24.64537,4.15886 -13.47067,0 -23.22096,-3.39354 -30.01349,-9.96274 -6.7898,-6.35131 -10.51561,-15.99539 -10.40395,-26.83783 0.10894,-24.53915 17.96179,-38.55997 42.1714,-38.55997 9.52969,0 16.86693,1.86835 20.4838,3.61687 l -3.50521,13.36172 c -4.05264,-1.75124 -9.0912,-3.17565 -17.19647,-3.17565 -13.90916,0 -24.42749,7.88739 -24.42749,23.88005 0,15.22463 9.52969,24.20416 23.22096,24.20416 3.83475,0 6.90146,-0.43032 8.21421,-1.08942 v -15.44796 h -11.38987 v -13.03216 h 27.49148 v 38.88407 z"
         id="path3068" /><path
         style="fill:#800000"
         inkscape:connector-curvature="0"
         d="m 242.36647,198.86968 c 0,14.45931 6.79253,24.64538 17.96179,24.64538 11.28366,0 17.74663,-10.7335 17.74663,-25.08114 0,-13.25005 -6.35403,-24.65082 -17.85557,-24.65082 -11.28093,0 -17.85285,10.73894 -17.85285,25.08658 z"
         id="path3070" /></g><path
       id="path3334"
       style="fill:#00bb00"
       d="m 462.84172,355.19914 c 0.37581,40.47013 35.50301,53.93758 35.89218,54.10949 -0.29702,0.94978 -5.61274,19.1924 -18.5067,38.03574 -11.14622,16.29101 -22.71457,32.52232 -40.9381,32.8585 -17.90645,0.32997 -23.66436,-10.61857 -44.13652,-10.61857 -20.46594,0 -26.86325,10.28239 -43.81372,10.94854 -17.59033,0.66565 -30.98519,-17.6166 -42.22405,-33.84792 -22.96528,-33.20184 -40.5155,-93.82036 -16.94999,-134.73889 11.70684,-20.32031 32.62786,-33.18798 55.33575,-33.51795 17.27327,-0.32949 33.57716,11.62088 44.13653,11.62088 10.55267,0 30.36537,-14.37138 51.19375,-12.26076 8.71948,0.36292 33.19516,3.52217 48.91171,26.52709 -1.26638,0.78504 -29.20453,17.04931 -28.90084,50.88385 m -33.65307,-99.37677 c 9.33882,-11.30428 15.62438,-27.04089 13.90961,-42.69871 -13.46123,0.54103 -29.73887,8.97017 -39.39428,20.26825 -8.6531,10.00496 -16.23132,26.01853 -14.18658,41.36644 15.00409,1.16085 30.33195,-7.62453 39.67125,-18.93598"
       inkscape:connector-curvature="0" /><g
       transform="matrix(0.76562456,0,0,0.76562456,343.59805,110.38661)"
       id="g3511"><g
         style="fill:#a4c639"
         transform="translate(-289.9823,224.68592)"
         id="g3423"><use
           height="1052.3622"
           width="744.09448"
           y="0"
           x="0"
           style="stroke:#ffffff;stroke-width:14.39999962"
           xlink:href="#b"
           id="use3425" /><use
           height="1052.3622"
           width="744.09448"
           y="0"
           x="0"
           xlink:href="#a"
           transform="scale(-1,1)"
           id="use3427" /><g
           style="stroke:#ffffff;stroke-width:7.19999981"
           id="a"><rect
             rx="6.5"
             transform="matrix(0.87461971,0.48480962,-0.48480962,0.87461971,0,0)"
             height="86"
             width="13"
             y="-86"
             x="14"
             id="rect3430" /><rect
             id="c"
             rx="24"
             height="133"
             width="48"
             y="41"
             x="-143" /><use
             height="1052.3622"
             width="744.09448"
             y="97"
             x="85"
             xlink:href="#c"
             id="use3433" /></g><g
           id="b"><ellipse
             sodipodi:ry="84"
             sodipodi:rx="91"
             sodipodi:cy="41"
             sodipodi:cx="0"
             cx="0"
             d="m 91,41 c 0,46.391919 -40.742088,84 -91,84 -50.257912,0 -91,-37.608081 -91,-84 0,-46.391919 40.742088,-84 91,-84 50.257912,0 91,37.608081 91,84 z"
             cy="41"
             rx="91"
             ry="84"
             id="ellipse3436" /><rect
             rx="22"
             height="182"
             width="182"
             y="20"
             x="-91"
             id="rect3438" /></g></g><g
         style="fill:#ffffff;stroke:#ffffff;stroke-width:7.19999981"
         transform="translate(-289.9823,224.68592)"
         id="g3440"><path
           inkscape:connector-curvature="0"
           d="M -95,44.5 H 95"
           id="path3442" /><circle
           sodipodi:ry="4"
           sodipodi:rx="4"
           sodipodi:cy="0"
           sodipodi:cx="-42"
           cy="0"
           d="m -38,0 c 0,2.209139 -1.790861,4 -4,4 -2.209139,0 -4,-1.790861 -4,-4 0,-2.209139 1.790861,-4 4,-4 2.209139,0 4,1.790861 4,4 z"
           cx="-42"
           r="4"
           id="circle3444" /><circle
           sodipodi:ry="4"
           sodipodi:rx="4"
           sodipodi:cy="0"
           sodipodi:cx="42"
           cy="0"
           d="m 46,0 c 0,2.209139 -1.790861,4 -4,4 -2.209139,0 -4,-1.790861 -4,-4 0,-2.209139 1.790861,-4 4,-4 2.209139,0 4,1.790861 4,4 z"
           cx="42"
           r="4"
           id="circle3446" /></g></g></g></svg>